<mxfile host="app.diagrams.net" modified="2020-10-12T16:37:07.968Z" agent="5.0 (Windows NT 10.0; Win64; x64) AppleWebKit/537.36 (KHTML, like Gecko) Chrome/86.0.4240.75 Safari/537.36" etag="50QdKbpTP1ZXgWd1a65_" version="13.7.9" type="github">
  <diagram id="C5RBs43oDa-KdzZeNtuy" name="Page-1">
    <mxGraphModel dx="1304" dy="529" grid="1" gridSize="10" guides="1" tooltips="1" connect="1" arrows="1" fold="1" page="1" pageScale="1" pageWidth="827" pageHeight="1169" math="0" shadow="0">
      <root>
        <mxCell id="WIyWlLk6GJQsqaUBKTNV-0" />
        <mxCell id="WIyWlLk6GJQsqaUBKTNV-1" parent="WIyWlLk6GJQsqaUBKTNV-0" />
        <mxCell id="SbHSppbtoeaYD7KaxK6l-10" value="" style="group" vertex="1" connectable="0" parent="WIyWlLk6GJQsqaUBKTNV-1">
          <mxGeometry x="20" y="40" width="740" height="300" as="geometry" />
        </mxCell>
        <mxCell id="SbHSppbtoeaYD7KaxK6l-0" value="AVAILABLE &lt;br&gt;OFF" style="ellipse;whiteSpace=wrap;html=1;aspect=fixed;fillColor=#CCCCCC;" vertex="1" parent="SbHSppbtoeaYD7KaxK6l-10">
          <mxGeometry x="201.81818181818184" width="95.45454545454545" height="95.45454545454545" as="geometry" />
        </mxCell>
        <mxCell id="SbHSppbtoeaYD7KaxK6l-1" value="FE HIT" style="text;html=1;strokeColor=none;fillColor=none;align=center;verticalAlign=middle;whiteSpace=wrap;rounded=0;" vertex="1" parent="SbHSppbtoeaYD7KaxK6l-10">
          <mxGeometry y="35.294117647058826" width="80.72727272727273" height="26.470588235294123" as="geometry" />
        </mxCell>
        <mxCell id="SbHSppbtoeaYD7KaxK6l-2" value="" style="endArrow=classic;html=1;exitX=1;exitY=0.5;exitDx=0;exitDy=0;" edge="1" parent="SbHSppbtoeaYD7KaxK6l-10" source="SbHSppbtoeaYD7KaxK6l-1">
          <mxGeometry width="50" height="50" relative="1" as="geometry">
            <mxPoint x="80.72727272727273" y="52.941176470588246" as="sourcePoint" />
            <mxPoint x="174.90909090909093" y="52.941176470588246" as="targetPoint" />
          </mxGeometry>
        </mxCell>
        <mxCell id="SbHSppbtoeaYD7KaxK6l-3" value="" style="endArrow=classic;html=1;" edge="1" parent="SbHSppbtoeaYD7KaxK6l-10">
          <mxGeometry width="50" height="50" relative="1" as="geometry">
            <mxPoint x="269.0909090909091" y="105.88235294117649" as="sourcePoint" />
            <mxPoint x="269.0909090909091" y="176.47058823529412" as="targetPoint" />
          </mxGeometry>
        </mxCell>
        <mxCell id="SbHSppbtoeaYD7KaxK6l-4" value="&lt;div&gt;&lt;span&gt;product-group&lt;/span&gt;&lt;/div&gt;&lt;div&gt;&lt;span&gt;&lt;br&gt;&lt;/span&gt;&lt;/div&gt;&lt;div&gt;&lt;span&gt;item A&lt;/span&gt;&lt;br&gt;&lt;/div&gt;&lt;div&gt;&lt;span&gt;item B&lt;/span&gt;&lt;/div&gt;&lt;div&gt;&lt;span&gt;item C&lt;/span&gt;&lt;/div&gt;" style="shape=cylinder3;whiteSpace=wrap;html=1;boundedLbl=1;backgroundOutline=1;size=15;align=center;" vertex="1" parent="SbHSppbtoeaYD7KaxK6l-10">
          <mxGeometry x="201.81818181818184" y="185.2941176470588" width="141.27272727272728" height="114.70588235294119" as="geometry" />
        </mxCell>
        <mxCell id="SbHSppbtoeaYD7KaxK6l-5" value="" style="endArrow=classic;html=1;" edge="1" parent="SbHSppbtoeaYD7KaxK6l-10">
          <mxGeometry width="50" height="50" relative="1" as="geometry">
            <mxPoint x="363.2727272727273" y="220.5882352941177" as="sourcePoint" />
            <mxPoint x="524.7272727272729" y="132.3529411764706" as="targetPoint" />
          </mxGeometry>
        </mxCell>
        <mxCell id="SbHSppbtoeaYD7KaxK6l-6" value="item A" style="ellipse;whiteSpace=wrap;html=1;aspect=fixed;fillColor=#95FF38;strokeColor=#FFFFFF;" vertex="1" parent="SbHSppbtoeaYD7KaxK6l-10">
          <mxGeometry x="511.2727272727273" y="26.470588235294123" width="69.42148760330578" height="69.42148760330578" as="geometry" />
        </mxCell>
        <mxCell id="SbHSppbtoeaYD7KaxK6l-7" value="item B" style="ellipse;whiteSpace=wrap;html=1;aspect=fixed;fillColor=#4DFF52;strokeColor=#FFFFFF;" vertex="1" parent="SbHSppbtoeaYD7KaxK6l-10">
          <mxGeometry x="632.3636363636363" y="44.11764705882353" width="69.42148760330578" height="69.42148760330578" as="geometry" />
        </mxCell>
        <mxCell id="SbHSppbtoeaYD7KaxK6l-8" value="item C" style="ellipse;whiteSpace=wrap;html=1;aspect=fixed;strokeColor=#FFF196;fillColor=#FFED91;" vertex="1" parent="SbHSppbtoeaYD7KaxK6l-10">
          <mxGeometry x="551.6363636363636" y="97.05882352941178" width="69.42148760330578" height="69.42148760330578" as="geometry" />
        </mxCell>
        <mxCell id="SbHSppbtoeaYD7KaxK6l-12" value="AVAILABLE &lt;br&gt;ON" style="ellipse;whiteSpace=wrap;html=1;aspect=fixed;fillColor=#99FFFF;" vertex="1" parent="WIyWlLk6GJQsqaUBKTNV-1">
          <mxGeometry x="157.27272727272728" y="400" width="85.9090909090909" height="85.9090909090909" as="geometry" />
        </mxCell>
        <mxCell id="SbHSppbtoeaYD7KaxK6l-13" value="FE HIT" style="text;html=1;strokeColor=none;fillColor=none;align=center;verticalAlign=middle;whiteSpace=wrap;rounded=0;" vertex="1" parent="WIyWlLk6GJQsqaUBKTNV-1">
          <mxGeometry x="40" y="431.7647058823529" width="46.90909090909091" height="23.82352941176471" as="geometry" />
        </mxCell>
        <mxCell id="SbHSppbtoeaYD7KaxK6l-14" value="" style="endArrow=classic;html=1;exitX=1;exitY=0.5;exitDx=0;exitDy=0;" edge="1" parent="WIyWlLk6GJQsqaUBKTNV-1" source="SbHSppbtoeaYD7KaxK6l-13">
          <mxGeometry x="40" y="400" width="50" height="50" as="geometry">
            <mxPoint x="86.9090909090909" y="447.6470588235294" as="sourcePoint" />
            <mxPoint x="141.63636363636363" y="447.6470588235294" as="targetPoint" />
          </mxGeometry>
        </mxCell>
        <mxCell id="SbHSppbtoeaYD7KaxK6l-15" value="" style="endArrow=classic;html=1;" edge="1" parent="WIyWlLk6GJQsqaUBKTNV-1">
          <mxGeometry x="40" y="400" width="50" height="50" as="geometry">
            <mxPoint x="196.36363636363637" y="495.29411764705884" as="sourcePoint" />
            <mxPoint x="196.36363636363637" y="558.8235294117646" as="targetPoint" />
          </mxGeometry>
        </mxCell>
        <mxCell id="SbHSppbtoeaYD7KaxK6l-16" value="&lt;div&gt;&lt;span&gt;product-group&lt;/span&gt;&lt;/div&gt;&lt;div&gt;&lt;span&gt;&lt;br&gt;&lt;/span&gt;&lt;/div&gt;&lt;div&gt;&lt;span&gt;item A&lt;/span&gt;&lt;br&gt;&lt;/div&gt;&lt;div&gt;&lt;span&gt;item B&lt;/span&gt;&lt;/div&gt;&lt;div&gt;&lt;span&gt;item C&lt;/span&gt;&lt;/div&gt;" style="shape=cylinder3;whiteSpace=wrap;html=1;boundedLbl=1;backgroundOutline=1;size=15;align=center;" vertex="1" parent="WIyWlLk6GJQsqaUBKTNV-1">
          <mxGeometry x="157.27272727272728" y="566.7647058823529" width="82.0909090909091" height="103.23529411764707" as="geometry" />
        </mxCell>
        <mxCell id="SbHSppbtoeaYD7KaxK6l-17" value="" style="endArrow=classic;html=1;" edge="1" parent="WIyWlLk6GJQsqaUBKTNV-1">
          <mxGeometry x="40" y="410.88" width="50" height="50" as="geometry">
            <mxPoint x="251.0909090909091" y="609.4094117647059" as="sourcePoint" />
            <mxPoint x="320" y="550" as="targetPoint" />
          </mxGeometry>
        </mxCell>
        <mxCell id="SbHSppbtoeaYD7KaxK6l-18" value="item A" style="ellipse;whiteSpace=wrap;html=1;aspect=fixed;fillColor=#95FF38;strokeColor=#FFFFFF;" vertex="1" parent="WIyWlLk6GJQsqaUBKTNV-1">
          <mxGeometry x="690.0009090909091" y="458.00352941176465" width="62.4793388429752" height="62.4793388429752" as="geometry" />
        </mxCell>
        <mxCell id="SbHSppbtoeaYD7KaxK6l-19" value="item B" style="ellipse;whiteSpace=wrap;html=1;aspect=fixed;fillColor=#4DFF52;strokeColor=#FFFFFF;" vertex="1" parent="WIyWlLk6GJQsqaUBKTNV-1">
          <mxGeometry x="760.3645454545455" y="473.8858823529411" width="62.4793388429752" height="62.4793388429752" as="geometry" />
        </mxCell>
        <mxCell id="SbHSppbtoeaYD7KaxK6l-20" value="item C" style="ellipse;whiteSpace=wrap;html=1;aspect=fixed;strokeColor=#FFF196;fillColor=#FFED91;" vertex="1" parent="WIyWlLk6GJQsqaUBKTNV-1">
          <mxGeometry x="713.4554545454546" y="521.5329411764707" width="62.4793388429752" height="62.4793388429752" as="geometry" />
        </mxCell>
        <mxCell id="SbHSppbtoeaYD7KaxK6l-22" value="&lt;div style=&quot;text-align: left&quot;&gt;&lt;span&gt;&lt;/span&gt;&amp;nbsp; &amp;nbsp;1. Tdk ada tags discontinued(tags)&lt;/div&gt;&lt;div style=&quot;text-align: left&quot;&gt;&lt;span&gt;&lt;/span&gt;&amp;nbsp; &amp;nbsp;2. Ada margin(tble prod price,&amp;nbsp; &amp;nbsp; &amp;nbsp; &amp;nbsp; &amp;nbsp; &amp;nbsp; &amp;nbsp; &amp;nbsp; &amp;nbsp; &amp;nbsp;unit.price - prod_cost)&lt;/div&gt;&lt;div style=&quot;text-align: left&quot;&gt;&lt;span&gt;&lt;/span&gt;&amp;nbsp; &amp;nbsp;3. Ada brand(brand)&lt;/div&gt;&lt;div style=&quot;text-align: left&quot;&gt;&lt;span&gt;&lt;/span&gt;&amp;nbsp; &amp;nbsp;4. Ada category(prod_category_id)&lt;/div&gt;" style="whiteSpace=wrap;html=1;aspect=fixed;strokeColor=#000000;fillColor=#FFFFFF;" vertex="1" parent="WIyWlLk6GJQsqaUBKTNV-1">
          <mxGeometry x="340" y="440" width="210" height="210" as="geometry" />
        </mxCell>
        <mxCell id="SbHSppbtoeaYD7KaxK6l-23" value="" style="endArrow=classic;html=1;exitX=1;exitY=0.5;exitDx=0;exitDy=0;" edge="1" parent="WIyWlLk6GJQsqaUBKTNV-1">
          <mxGeometry x="513.0899999999999" y="482.72" width="50" height="50" as="geometry">
            <mxPoint x="559.9990909090909" y="526.3964705882353" as="sourcePoint" />
            <mxPoint x="670" y="523.97" as="targetPoint" />
          </mxGeometry>
        </mxCell>
        <mxCell id="SbHSppbtoeaYD7KaxK6l-24" value="" style="endArrow=classic;html=1;" edge="1" parent="WIyWlLk6GJQsqaUBKTNV-1">
          <mxGeometry x="213.64" y="574.71" width="50" height="50" as="geometry">
            <mxPoint x="370.0036363636367" y="670.0041176470588" as="sourcePoint" />
            <mxPoint x="270" y="740" as="targetPoint" />
          </mxGeometry>
        </mxCell>
        <mxCell id="SbHSppbtoeaYD7KaxK6l-25" value="ERROR margin" style="ellipse;whiteSpace=wrap;html=1;strokeColor=#FFF8F7;fillColor=#FFB8B0;" vertex="1" parent="WIyWlLk6GJQsqaUBKTNV-1">
          <mxGeometry x="157.27" y="750" width="132.73" height="120" as="geometry" />
        </mxCell>
        <mxCell id="SbHSppbtoeaYD7KaxK6l-26" value="Error Prod_category_id" style="ellipse;whiteSpace=wrap;html=1;strokeColor=#FFF8F7;fillColor=#FFB8B0;" vertex="1" parent="WIyWlLk6GJQsqaUBKTNV-1">
          <mxGeometry x="157.27" y="880" width="132.73" height="120" as="geometry" />
        </mxCell>
        <mxCell id="SbHSppbtoeaYD7KaxK6l-27" value="ERROR discontinued" style="ellipse;whiteSpace=wrap;html=1;strokeColor=#FFF8F7;fillColor=#FFB8B0;" vertex="1" parent="WIyWlLk6GJQsqaUBKTNV-1">
          <mxGeometry x="10" y="750" width="132.73" height="120" as="geometry" />
        </mxCell>
        <mxCell id="SbHSppbtoeaYD7KaxK6l-28" value="ERROR brand" style="ellipse;whiteSpace=wrap;html=1;strokeColor=#FFF8F7;fillColor=#FFB8B0;" vertex="1" parent="WIyWlLk6GJQsqaUBKTNV-1">
          <mxGeometry x="10" y="880" width="132.73" height="120" as="geometry" />
        </mxCell>
        <mxCell id="SbHSppbtoeaYD7KaxK6l-29" value="" style="endArrow=none;html=1;" edge="1" parent="WIyWlLk6GJQsqaUBKTNV-1">
          <mxGeometry width="50" height="50" relative="1" as="geometry">
            <mxPoint x="-0.000697674418574934" y="359.99777777777786" as="sourcePoint" />
            <mxPoint x="820" y="370" as="targetPoint" />
          </mxGeometry>
        </mxCell>
      </root>
    </mxGraphModel>
  </diagram>
</mxfile>
